<?xml version="1.0" standalone="no"?><!DOCTYPE svg PUBLIC "-//W3C//DTD SVG 1.1//EN" "http://www.w3.org/Graphics/SVG/1.1/DTD/svg11.dtd"><svg class="icon" width="200px" height="200.00px" viewBox="0 0 1024 1024" version="1.1" xmlns="http://www.w3.org/2000/svg"><path d="M527.872 187.392c-220.16 0-398.848 178.688-398.848 398.848s178.688 398.848 398.848 398.848 398.848-178.688 398.848-398.848-178.688-398.848-398.848-398.848z m88.064 552.448l-128.512-67.584-128.512 67.584 24.576-143.36-104.448-101.376 143.872-20.992 64.512-130.56 64.512 130.56 143.872 20.992-103.936 101.376 24.064 143.36z" fill="#FDDE00" /><path d="M551.936 474.112L487.424 343.552 422.912 474.112l-143.872 20.992 103.936 101.376-24.576 143.36 128.512-67.584 128.512 67.584-24.576-143.36 103.936-101.376-142.848-20.992z m2.048 179.712l-66.56-34.816-66.56 34.816 12.8-73.728-53.76-52.224 74.24-10.752 33.28-67.072 33.28 67.072 74.24 10.752-53.76 52.224 12.8 73.728z" fill="#1C1C1C" /><path d="M1020.416 0h-296.96L650.24 117.76c-51.2-19.968-107.008-31.744-166.4-31.744-44.032 0-84.48 6.144-125.44 17.408v0.512L300.544 0H3.584l138.24 239.104C65.536 322.56 18.432 433.152 18.432 555.008c0 258.56 210.432 468.992 468.992 468.992s468.992-210.432 468.992-468.992c0-105.472-35.328-202.24-94.208-280.576L1020.416 0z m-269.824 46.08h188.928l-109.056 189.44c-37.376-40.448-81.92-74.24-131.584-99.328L750.592 46.08zM273.408 46.08l40.448 72.704C262.656 138.752 215.04 168.448 174.08 204.8L84.48 46.08h188.928z m214.016 930.816c-232.96 0-422.4-189.44-422.4-422.4s189.44-422.4 422.4-422.4 422.4 189.44 422.4 422.4-189.44 422.4-422.4 422.4z" fill="#1C1C1C" /></svg>