<?xml version="1.0" standalone="no"?><!DOCTYPE svg PUBLIC "-//W3C//DTD SVG 1.1//EN" "http://www.w3.org/Graphics/SVG/1.1/DTD/svg11.dtd"><svg class="icon" width="200px" height="200.00px" viewBox="0 0 1024 1024" version="1.1" xmlns="http://www.w3.org/2000/svg"><path fill="#333333" d="M551.876606 474.008771L487.551238 343.410334 423.379635 474.008771l-144.078574 20.912152 104.099461 101.485442-24.551276 143.514766 128.701992-67.656961 128.701992 67.656961-24.551276-143.514766 104.099461-101.485442z m1.998956 179.906011l-66.375579-34.904842-66.37558 34.904842 12.506287-73.910105L380.171439 527.929319l73.96136-11.019884 33.162162-67.246919 33.469694 67.246919 74.166381 10.763608-53.664271 52.331634z"  /><path fill="#333333" d="M1020.86236 0h-297.280587l-69.553406 116.708258a453.711683 453.711683 0 0 0-166.68215-31.624504 459.247252 459.247252 0 0 0-125.47291 18.195622v-0.358786L300.366978 0h-297.280587l138.389239 239.054596A468.883244 468.883244 0 1 0 956.742013 554.684572a465.44914 465.44914 0 0 0-94.258448-280.622624z m-270.115292 46.129746h188.875684l-109.173733 189.13196a471.548518 471.548518 0 0 0-131.623543-99.23021zM273.509215 46.129746l42.234345 72.321191a468.575712 468.575712 0 0 0-138.389239 85.750073v-0.717573L84.633531 46.129746H273.509215z m214.042023 930.847026a422.343455 422.343455 0 1 1 422.343455-422.343455 422.804753 422.804753 0 0 1-422.343455 422.343455z"  /></svg>