<?xml version="1.0" standalone="no"?><!DOCTYPE svg PUBLIC "-//W3C//DTD SVG 1.1//EN" "http://www.w3.org/Graphics/SVG/1.1/DTD/svg11.dtd"><svg class="icon" width="200px" height="200.00px" viewBox="0 0 1024 1024" version="1.1" xmlns="http://www.w3.org/2000/svg"><path fill="#333333" d="M297.192228 503.737578m-47.75627 0a47.75627 47.75627 0 1 0 95.51254 0 47.75627 47.75627 0 1 0-95.51254 0Z"  /><path fill="#333333" d="M512.018828 503.737578m-47.75627 0a47.75627 47.75627 0 1 0 95.51254 0 47.75627 47.75627 0 1 0-95.51254 0Z"  /><path fill="#333333" d="M726.845428 503.737578m-47.75627 0a47.75627 47.75627 0 1 0 95.51254 0 47.75627 47.75627 0 1 0-95.51254 0Z"  /><path fill="#333333" d="M1013.280895 503.737578a502.487896 502.487896 0 1 0-248.485832 432.36024l219.627765 87.902182-82.38595-205.990413a501.057762 501.057762 0 0 0 111.244017-314.272009z m-252.98054 379.138814l-10.215245 6.333452a453.199339 453.199339 0 1 1 106.493928-91.068908l-9.398025 10.981388 51.689139 129.171771z"  /></svg>