<?xml version="1.0" standalone="no"?><!DOCTYPE svg PUBLIC "-//W3C//DTD SVG 1.1//EN" "http://www.w3.org/Graphics/SVG/1.1/DTD/svg11.dtd"><svg class="icon" width="200px" height="200.00px" viewBox="0 0 1024 1024" version="1.1" xmlns="http://www.w3.org/2000/svg"><path fill="#333333" d="M991.744 332.8c-4.608-12.8-18.944-18.944-31.232-14.336-12.8 4.608-18.944 18.944-14.336 31.232 19.456 51.712 29.184 106.496 29.184 162.304 0 255.488-207.872 463.36-463.36 463.36S48.64 767.488 48.64 512 256.512 48.64 512 48.64c91.136 0 179.2 26.624 254.976 76.288 11.264 7.168 26.624 4.096 33.792-7.168 7.168-11.264 4.096-26.624-7.168-33.792C710.144 29.184 612.352 0 512 0 229.888 0 0 229.888 0 512s229.888 512 512 512 512-229.888 512-512c0-61.44-10.752-121.856-32.256-179.2z"  /><path fill="#333333" d="M882.688 233.984c5.632 7.68 11.264 15.36 16.384 23.04 4.608 7.168 12.288 10.752 20.48 10.752 4.608 0 9.216-1.536 13.312-4.096 11.264-7.68 14.336-22.528 6.656-33.792-5.632-8.704-11.776-17.408-17.92-25.6-13.312-17.92-28.16-35.328-44.032-51.2-9.216-9.728-25.088-9.728-34.304-0.512-9.728 9.216-9.728 25.088-0.512 34.304 14.336 15.36 27.648 30.72 39.936 47.104zM541.696 445.44c-9.216-4.096-18.944-6.656-29.696-6.656-40.448 0-73.216 32.768-73.216 73.216 0 2.048 0.512 4.096 0.512 6.144l-179.2 203.776 230.912-140.288c6.656 2.048 13.312 3.584 20.992 3.584 40.448 0 73.216-32.768 73.216-73.216 0-1.024 0-2.048-0.512-2.56l171.008-192.512L541.696 445.44z"  /></svg>