<?xml version="1.0" standalone="no"?><!DOCTYPE svg PUBLIC "-//W3C//DTD SVG 1.1//EN" "http://www.w3.org/Graphics/SVG/1.1/DTD/svg11.dtd"><svg class="icon" width="200px" height="200.00px" viewBox="0 0 1024 1024" version="1.1" xmlns="http://www.w3.org/2000/svg"><path d="M560.688103 560.849226m-438.734006 0a438.734006 438.734006 0 1 0 877.468012 0 438.734006 438.734006 0 1 0-877.468012 0Z" fill="#FDDE00" /><path d="M991.590315 332.959389a24.36558 24.36558 0 1 0-45.659869 17.045668 463.304339 463.304339 0 1 1-179.158677-224.818546 24.36558 24.36558 0 0 0 26.873802-40.950554A511.011735 511.011735 0 1 0 991.590315 332.959389z" fill="#1C1C1C" /><path d="M882.457087 234.217363q8.49724 11.312591 16.329033 23.23944a24.36558 24.36558 0 1 0 40.745802-26.873801q-8.650805-13.104178-18.069432-25.594097a515.311543 515.311543 0 0 0-43.91947-51.188194 24.36558 24.36558 0 1 0-34.807972 34.142525 467.911276 467.911276 0 0 1 39.722039 46.274127zM541.799659 445.573414a72.891987 72.891987 0 0 0-102.939457 66.544652c0 2.098716 0.460694 4.095055 0.614259 6.193771L260.213407 721.989659l230.909941-139.999709a72.328917 72.328917 0 0 0 20.884783 3.37842A73.147928 73.147928 0 0 0 585.104871 512.118066c0-0.921387 0-1.791587-0.255941-2.712975l170.86619-192.314042z" fill="#1C1C1C" /></svg>