<?xml version="1.0" standalone="no"?><!DOCTYPE svg PUBLIC "-//W3C//DTD SVG 1.1//EN" "http://www.w3.org/Graphics/SVG/1.1/DTD/svg11.dtd"><svg t="1564367109467" class="icon" viewBox="0 0 1024 1024" version="1.1" xmlns="http://www.w3.org/2000/svg" p-id="31397" xmlns:xlink="http://www.w3.org/1999/xlink" width="200" height="200"><defs><style type="text/css"></style></defs><path d="M503.697297 224.172973C279.524324 224.172973 96.864865 404.064865 96.864865 622.702703c0 221.405405 182.659459 401.297297 406.832432 401.297297s406.832432-179.891892 406.832433-401.297297c2.767568-218.637838-179.891892-398.52973-406.832433-398.52973z m210.335135 365.318919L633.772973 664.216216l19.372973 107.935135c5.535135 35.978378-13.837838 52.583784-49.816216 35.978379l-99.632433-52.583784-99.632432 52.583784c-33.210811 16.605405-55.351351 2.767568-49.816216-35.978379l22.14054-107.935135-80.259459-77.491892c-27.675676-24.908108-19.372973-49.816216 19.372973-55.351351l110.702702-16.605405 49.816217-99.632433c16.605405-33.210811 44.281081-33.210811 60.886486 0l49.816216 99.632433 110.702703 16.605405c35.978378 5.535135 44.281081 30.443243 16.605405 58.118919z" fill="#FFB103" p-id="31398"></path><path d="M882.854054 0h-254.616216c-13.837838 0-24.908108 8.302703-27.675676 19.372973l-77.491892 141.145946s168.821622 8.302703 268.454054 96.864865l116.237838-213.102703c2.767568-5.535135 5.535135-8.302703 5.535135-16.605405 0-16.605405-13.837838-27.675676-30.443243-27.675676zM489.859459 160.518919L409.6 19.372973c-2.767568-11.07027-13.837838-19.372973-27.675676-19.372973H127.308108C110.702703 0 96.864865 11.07027 96.864865 27.675676c0 5.535135 2.767568 11.07027 5.535135 16.605405l116.237838 213.102703c102.4-88.562162 271.221622-96.864865 271.221621-96.864865z" fill="#E3583F" p-id="31399"></path></svg>