<?xml version="1.0" standalone="no"?><!DOCTYPE svg PUBLIC "-//W3C//DTD SVG 1.1//EN" "http://www.w3.org/Graphics/SVG/1.1/DTD/svg11.dtd"><svg t="1564367124800" class="icon" viewBox="0 0 1024 1024" version="1.1" xmlns="http://www.w3.org/2000/svg" p-id="31631" xmlns:xlink="http://www.w3.org/1999/xlink" width="200" height="200"><defs><style type="text/css"></style></defs><path d="M517.535135 232.475676C290.594595 232.475676 107.935135 409.6 107.935135 628.237838S290.594595 1024 517.535135 1024 927.135135 846.875676 927.135135 628.237838 744.475676 232.475676 517.535135 232.475676z m210.335135 359.783783l-80.259459 74.724325 19.372973 107.935135c5.535135 35.978378-13.837838 52.583784-49.816216 33.210811l-99.632433-49.816216-99.632432 49.816216c-33.210811 16.605405-55.351351 2.767568-49.816217-33.210811l19.372973-107.935135-80.259459-74.724325c-27.675676-24.908108-19.372973-49.816216 19.372973-55.351351l110.702703-16.605405 49.816216-96.864865c16.605405-33.210811 44.281081-33.210811 60.886486 0l49.816217 96.864865 110.702702 16.605405c38.745946 5.535135 47.048649 30.443243 19.372973 55.351351z" fill="#D5D5D3" p-id="31632"></path><path d="M899.459459 0h-251.848648c-13.837838 0-24.908108 8.302703-27.675676 22.140541l-77.491892 146.681081s166.054054 8.302703 262.918919 99.632432l116.237838-224.172973c2.767568-5.535135 5.535135-11.07027 5.535135-16.605405 0-13.837838-13.837838-27.675676-27.675676-27.675676zM481.556757 168.821622L404.064865 22.140541C401.297297 8.302703 390.227027 0 376.389189 0H124.540541c-16.605405 0-27.675676 13.837838-27.675676 27.675676 0 5.535135 2.767568 11.07027 5.535135 16.605405l116.237838 224.172973c96.864865-91.32973 262.918919-99.632432 262.918919-99.632432z" fill="#E3583F" p-id="31633"></path></svg>